<?xml version="1.0" encoding="UTF-8" standalone="no"?>
<svg
   xmlns:dc="http://purl.org/dc/elements/1.1/"
   xmlns:cc="http://creativecommons.org/ns#"
   xmlns:rdf="http://www.w3.org/1999/02/22-rdf-syntax-ns#"
   xmlns:svg="http://www.w3.org/2000/svg"
   xmlns="http://www.w3.org/2000/svg"
   xmlns:sodipodi="http://sodipodi.sourceforge.net/DTD/sodipodi-0.dtd"
   xmlns:inkscape="http://www.inkscape.org/namespaces/inkscape"
   width="104.1026"
   height="127.85932"
   viewBox="0 0 104.1026 127.85932"
   version="1.1"
   id="svg8"
   sodipodi:docname="svelte-a11y.svg"
   inkscape:version="0.92.3 (2405546, 2018-03-11)">
  <metadata
     id="metadata14">
    <rdf:RDF>
      <cc:Work
         rdf:about="">
        <dc:format>image/svg+xml</dc:format>
        <dc:type
           rdf:resource="http://purl.org/dc/dcmitype/StillImage" />
        <dc:title>svelte-logo</dc:title>
      </cc:Work>
    </rdf:RDF>
  </metadata>
  <defs
     id="defs12" />
  <sodipodi:namedview
     pagecolor="#ffffff"
     bordercolor="#666666"
     borderopacity="1"
     objecttolerance="10"
     gridtolerance="10"
     guidetolerance="10"
     inkscape:pageopacity="0"
     inkscape:pageshadow="2"
     inkscape:window-width="2493"
     inkscape:window-height="1359"
     id="namedview10"
     showgrid="false"
     inkscape:zoom="5.2149125"
     inkscape:cx="124.98653"
     inkscape:cy="29.718871"
     inkscape:window-x="67"
     inkscape:window-y="44"
     inkscape:window-maximized="1"
     inkscape:current-layer="svg8"
     fit-margin-top="0"
     fit-margin-left="0"
     fit-margin-right="0"
     fit-margin-bottom="0" />
  <title
     id="title2">svelte-logo</title>
  <path
     d="m 98.162188,30.678212 c -10.4,-14.8851 -30.94,-19.2971 -45.7914,-9.8348 l -26.0827,16.6237 a 29.9234,29.9234 0 0 0 -13.5186,20.0428 31.5136,31.5136 0 0 0 3.1076,20.2318 30.0061,30.0061 0 0 0 -4.4762,11.1829 31.8886,31.8886 0 0 0 5.4473,24.115698 c 10.4022,14.8865 30.9423,19.2966 45.7914,9.8348 l 26.0827,-16.6237 a 29.9177,29.9177 0 0 0 13.518602,-20.042798 31.5263,31.5263 0 0 0 -3.105302,-20.2323 30,30 0 0 0 4.474302,-11.1824 31.88,31.88 0 0 0 -5.447302,-24.1157"
     style="fill:#ff3e00"
     id="path4"
     inkscape:connector-curvature="0" />
  <path
     d="m 49.822688,114.44081 a 20.7182,20.7182 0 0 1 -22.2371,-8.2426 19.1739,19.1739 0 0 1 -3.2766,-14.502498 18.1886,18.1886 0 0 1 0.6233,-2.4357 l 0.4912,-1.4978 1.3363,0.9815 a 33.6443,33.6443 0 0 0 10.203,5.0978 l 0.9694,0.2941 -0.0893,0.9675 a 5.8474,5.8474 0 0 0 1.052,3.8781 6.2389,6.2389 0 0 0 6.6952,2.484998 5.7449,5.7449 0 0 0 1.6021,-0.7041 l 26.0834,-16.621798 a 5.4306,5.4306 0 0 0 2.4506,-3.631 5.7948,5.7948 0 0 0 -0.9875,-4.3712 6.2436,6.2436 0 0 0 -6.6978,-2.4864 5.7427,5.7427 0 0 0 -1.6,0.7036 l -9.9532,6.3449 a 19.0329,19.0329 0 0 1 -5.2965,2.3259 20.7181,20.7181 0 0 1 -22.2368,-8.2427 19.1725,19.1725 0 0 1 -3.2766,-14.5024 17.9885,17.9885 0 0 1 8.13,-12.0513 l 26.0811,-16.6232 a 19.0038,19.0038 0 0 1 5.3,-2.3287 20.7182,20.7182 0 0 1 22.2367,8.2426 19.1739,19.1739 0 0 1 3.2766,14.5025 18.4,18.4 0 0 1 -0.6233,2.4357 l -0.4912,1.4978 -1.3356,-0.98 a 33.6175,33.6175 0 0 0 -10.2037,-5.1 l -0.9694,-0.2942 0.0893,-0.9675 a 5.8588,5.8588 0 0 0 -1.052,-3.878 6.2389,6.2389 0 0 0 -6.6952,-2.485 5.7449,5.7449 0 0 0 -1.6021,0.7041 l -26.0834,16.6225 a 5.4218,5.4218 0 0 0 -2.4487,3.63 5.7862,5.7862 0 0 0 0.9856,4.3717 6.2437,6.2437 0 0 0 6.6978,2.4864 5.7652,5.7652 0 0 0 1.602,-0.7041 l 9.9519,-6.3425 a 18.978,18.978 0 0 1 5.2959,-2.3278 20.7181,20.7181 0 0 1 22.2368,8.2427 19.1725,19.1725 0 0 1 3.2766,14.5024 17.9977,17.9977 0 0 1 -8.13,12.0532 l -26.0812,16.621798 a 19.0038,19.0038 0 0 1 -5.3,2.3287"
     style="fill:#ffffff"
     id="path6"
     inkscape:connector-curvature="0" />
  <g
     id="g8153"
     transform="scale(1.7080287,1.7670311)"
     style="fill:#ff3e00;fill-opacity:1">
    <g
       id="g8097"
       style="fill:#ff3e00;fill-opacity:1">
	<path
   id="path8095"
   d="M 13,0 C 5.82,0 0,5.82 0,13 0,20.18 5.82,26 13,26 20.178,26 26,20.18 26,13 26,5.82 20.178,0 13,0 Z m 0,24.053 C 6.896,24.053 1.947,19.104 1.947,13 1.947,6.896 6.896,1.947 13,1.947 19.104,1.947 24.053,6.896 24.053,13 24.053,19.104 19.104,24.053 13,24.053 Z M 13,3.999 c -4.972,0 -9.001,4.029 -9.001,9.001 0,4.972 4.029,9 9.001,9 4.972,0 8.999,-4.028 8.999,-9 0,-4.972 -4.027,-9.001 -8.999,-9.001 z m 0,1.694 c 0.994,0 1.8,0.806 1.8,1.8 0,0.995 -0.806,1.8 -1.8,1.8 -0.994,0 -1.8,-0.805 -1.8,-1.8 0,-0.994 0.806,-1.8 1.8,-1.8 z m 5.097,5.011 c -0.469,0.051 -2.08,0.13 -2.712,0.159 -0.631,0.031 -1.263,-0.033 -1.263,1.054 0,1.986 0.632,5.06 1.233,6.685 0.547,1.477 0.241,1.232 -0.03,1.383 -0.271,0.151 -0.662,-0.031 -0.903,-0.692 -0.239,-0.661 -0.752,-2.618 -0.871,-3.128 -0.122,-0.513 -0.211,-1.054 -0.513,-1.054 -0.3,0 -0.39,0.301 -0.48,0.903 -0.091,0.602 -0.782,3.069 -0.993,3.43 -0.209,0.36 -0.271,0.571 -0.753,0.571 -0.48,0 -0.45,-0.481 -0.302,-0.903 0.151,-0.42 1.387,-4.456 1.444,-7.044 0.022,-0.872 -0.118,-1.143 -1.112,-1.143 -0.993,0 -3.039,-0.24 -3.039,-0.24 0,0 -0.752,-0.03 -0.722,-0.572 0.03,-0.542 0.541,-0.453 0.843,-0.423 0,0 3.073,0.298 5.059,0.298 1.986,0 5.261,-0.328 5.261,-0.328 0,0 0.571,-0.029 0.661,0.392 0.09,0.421 -0.282,0.595 -0.808,0.652 z"
   style="fill:#ff3e00;fill-opacity:1"
   inkscape:connector-curvature="0" />

</g>
    <g
       id="g8099"
       style="fill:#ff3e00;fill-opacity:1">
</g>
    <g
       id="g8101"
       style="fill:#ff3e00;fill-opacity:1">
</g>
    <g
       id="g8103"
       style="fill:#ff3e00;fill-opacity:1">
</g>
    <g
       id="g8105"
       style="fill:#ff3e00;fill-opacity:1">
</g>
    <g
       id="g8107"
       style="fill:#ff3e00;fill-opacity:1">
</g>
    <g
       id="g8109"
       style="fill:#ff3e00;fill-opacity:1">
</g>
    <g
       id="g8111"
       style="fill:#ff3e00;fill-opacity:1">
</g>
    <g
       id="g8113"
       style="fill:#ff3e00;fill-opacity:1">
</g>
    <g
       id="g8115"
       style="fill:#ff3e00;fill-opacity:1">
</g>
    <g
       id="g8117"
       style="fill:#ff3e00;fill-opacity:1">
</g>
    <g
       id="g8119"
       style="fill:#ff3e00;fill-opacity:1">
</g>
    <g
       id="g8121"
       style="fill:#ff3e00;fill-opacity:1">
</g>
    <g
       id="g8123"
       style="fill:#ff3e00;fill-opacity:1">
</g>
    <g
       id="g8125"
       style="fill:#ff3e00;fill-opacity:1">
</g>
    <g
       id="g8127"
       style="fill:#ff3e00;fill-opacity:1">
</g>
  </g>
</svg>
